<svg width="200" height="200" viewBox="0 0 200 200" fill="none" xmlns="http://www.w3.org/2000/svg">
<g clip-path="url(#clip0)">
<path d="M148.276 146.966C147.111 146.97 146.022 146.385 145.382 145.411C144.742 144.437 144.637 143.206 145.103 142.138L165.517 95.8276V54.7586C165.517 52.8542 167.061 51.3103 168.966 51.3103C170.87 51.3103 172.414 52.8542 172.414 54.7586C172.414 100.207 172.414 96.9655 172.138 97.931L151.448 144.828C150.919 146.115 149.668 146.959 148.276 146.966V146.966Z" fill="#9FC9D3"/>
<path d="M189.655 146.966C188.28 146.97 187.033 146.157 186.483 144.897L165.793 97.931C165.379 97 165.517 100.586 165.517 54.7586C165.517 52.8542 167.061 51.3103 168.966 51.3103C170.87 51.3103 172.414 52.8542 172.414 54.7586V95.8276L192.828 142.138C193.294 143.206 193.189 144.437 192.549 145.411C191.909 146.385 190.82 146.97 189.655 146.966V146.966Z" fill="#9FC9D3"/>
<path d="M15.8621 116C12.441 114.643 9.9986 111.57 9.44828 107.931L1.34483 53.8276C0.57222 48.69 3.72994 43.7764 8.72414 42.3448L32.8621 34.4828L31.0345 121.069C25.7755 120.056 20.6737 118.352 15.8621 116Z" fill="#2C3E50"/>
<path d="M53.4483 200C79.1581 200 100 179.158 100 153.448C100 127.738 79.1581 106.897 53.4483 106.897C27.7385 106.897 6.89656 127.738 6.89656 153.448C6.89656 179.158 27.7385 200 53.4483 200Z" fill="#95A5A5"/>
<path d="M96.5517 135.862C96.5517 144.448 96.9655 147 95.3448 150.241C93.9802 153.128 91.5182 155.35 88.5067 156.412C85.4953 157.474 82.1842 157.289 79.3103 155.897C75.1237 153.892 72.4467 149.676 72.4138 145.034V151.724C72.493 157.517 68.5113 162.577 62.8621 163.862C59.2758 164.641 55.5302 163.74 52.6896 161.417C49.8491 159.093 48.2239 155.601 48.2759 151.931V129.552C48.3232 127.929 47.2317 126.492 45.6552 126.103C27.9655 121.724 29.6552 122.172 28.931 121.897C26.6913 121.135 24.7248 119.732 23.2759 117.862C34.6702 108.206 50.0033 104.599 64.5074 108.162C79.0116 111.725 90.9281 122.026 96.5517 135.862V135.862Z" fill="#7F8C8D"/>
<path d="M44.8276 186.207C50.5409 186.207 55.1724 181.575 55.1724 175.862C55.1724 170.149 50.5409 165.517 44.8276 165.517C39.1143 165.517 34.4828 170.149 34.4828 175.862C34.4828 181.575 39.1143 186.207 44.8276 186.207Z" fill="#7F8C8D"/>
<path d="M96.5517 105.172C96.5517 141.828 97 141.379 95.3448 144.828C93.9865 147.721 91.5272 149.95 88.5151 151.019C85.503 152.088 82.1885 151.907 79.3104 150.517C75.1237 148.513 72.4467 144.297 72.4138 139.655V146.207C72.493 152 68.5113 157.06 62.8621 158.345C59.2996 159.118 55.5787 158.234 52.744 155.942C49.9092 153.65 48.2661 150.197 48.2759 146.552V124.138C48.3232 122.515 47.2317 121.079 45.6552 120.69C28.1724 116.483 29.6552 116.897 28.931 116.621C24.0285 114.926 20.7264 110.325 20.6897 105.138V67.4483L75.1035 63.5862L93.4828 97.1379C95.4633 99.3449 96.5566 102.207 96.5517 105.172Z" fill="#35495E"/>
<path d="M79.3103 106.897V150.517C75.1007 148.539 72.4133 144.306 72.4138 139.655C72.4138 103.345 72.8621 105.172 71.1379 102.379C70.2572 101.33 70.081 99.8591 70.6891 98.6316C71.2972 97.4041 72.5742 96.653 73.9425 96.7179C75.3108 96.7828 76.5109 97.6515 77 98.931C78.4818 101.326 79.2807 104.08 79.3103 106.897V106.897Z" fill="#2C3E50"/>
<path d="M68.9655 73.2759C77.1724 91.3793 69.931 93.9655 73.2414 101.103C77.5517 110.552 99.1724 111.448 93 79.7241C91.8621 73.7931 89.7931 65.2759 85 61.1724L68.9655 73.2759Z" fill="#3F5C6C"/>
<path d="M72.4138 124.138C79.069 116.655 88.7241 106.103 95.3793 100C113.483 83.2414 144.207 59.7241 180.793 51.7241C184.316 50.737 186.455 47.1709 185.667 43.5982C184.879 40.0256 181.439 37.6898 177.828 38.2759C146.207 45.1724 108.862 64.9655 73.7931 102.034C73.3055 102.478 72.8449 102.95 72.4138 103.448V124.138Z" fill="#A56A43"/>
<path d="M168.966 193.103C186.105 193.103 200 179.209 200 162.069C200 144.929 186.105 131.034 168.966 131.034C151.826 131.034 137.931 144.929 137.931 162.069C137.931 179.209 151.826 193.103 168.966 193.103Z" fill="#95A5A5"/>
<path d="M156.897 172C161.658 172 165.517 168.14 165.517 163.379C165.517 158.618 161.658 154.759 156.897 154.759C152.135 154.759 148.276 158.618 148.276 163.379C148.276 168.14 152.135 172 156.897 172Z" fill="#7F8C8D"/>
<path d="M120.69 41.3793C118.785 41.3793 117.241 39.8355 117.241 37.931V24.1379C117.241 22.2335 118.785 20.6897 120.69 20.6897C122.594 20.6897 124.138 22.2335 124.138 24.1379V37.931C124.138 39.8355 122.594 41.3793 120.69 41.3793Z" fill="#98C83E"/>
<path d="M127.586 34.4828H113.793C111.889 34.4828 110.345 32.9389 110.345 31.0345C110.345 29.1301 111.889 27.5862 113.793 27.5862H127.586C129.491 27.5862 131.035 29.1301 131.035 31.0345C131.035 32.9389 129.491 34.4828 127.586 34.4828Z" fill="#98C83E"/>
<path d="M141.379 113.793C139.475 113.793 137.931 112.249 137.931 110.345V96.5517C137.931 94.6473 139.475 93.1034 141.379 93.1034C143.284 93.1034 144.828 94.6473 144.828 96.5517V110.345C144.828 112.249 143.284 113.793 141.379 113.793Z" fill="#98C83E"/>
<path d="M148.276 106.897H134.483C132.578 106.897 131.035 105.353 131.035 103.448C131.035 101.544 132.578 100 134.483 100H148.276C150.18 100 151.724 101.544 151.724 103.448C151.724 105.353 150.18 106.897 148.276 106.897Z" fill="#98C83E"/>
<path d="M182.759 20.6897C180.854 20.6897 179.31 19.1458 179.31 17.2414V3.44828C179.31 1.54385 180.854 0 182.759 0C184.663 0 186.207 1.54385 186.207 3.44828V17.2414C186.207 19.1458 184.663 20.6897 182.759 20.6897Z" fill="#98C83E"/>
<path d="M189.655 13.7931H175.862C173.958 13.7931 172.414 12.2493 172.414 10.3448C172.414 8.4404 173.958 6.89655 175.862 6.89655H189.655C191.56 6.89655 193.103 8.4404 193.103 10.3448C193.103 12.2493 191.56 13.7931 189.655 13.7931Z" fill="#98C83E"/>
<path d="M93.3793 177.414C88.4932 185.478 81.2803 191.873 72.6897 195.759C67.6239 190.045 68.1488 181.307 73.8621 176.241C79.5754 171.176 88.3135 171.701 93.3793 177.414Z" fill="#7F8C8D"/>
<path d="M31.0345 146.552C31.0278 152.178 27.9758 157.361 23.0581 160.095C18.1405 162.829 12.128 162.688 7.34484 159.724C5.97596 149.958 7.77689 140.011 12.4828 131.345C17.0385 130.436 21.7616 131.617 25.3543 134.562C28.947 137.507 31.0313 141.906 31.0345 146.552V146.552Z" fill="#7F8C8D"/>
<path d="M22.2069 56.6552C20.8621 58.8966 20.8966 59.8966 19.8966 66C17.6543 79.4374 24.4375 92.7661 36.6207 98.8621C59.0345 110.034 58.8621 110.345 62.069 110.345C65.8063 110.342 69.2513 108.323 71.0809 105.064C72.9104 101.805 72.84 97.813 70.8966 94.6207C68.8276 91.1724 66.2414 90.5517 57.6897 86.2414L45.8966 80.3448C42.9419 78.8737 40.8666 76.081 40.3104 72.8276L22.2069 56.6552Z" fill="#3F5C6C"/>
<path d="M17.2414 37.931C17.2414 58.8798 34.2237 75.8621 55.1724 75.8621C76.1212 75.8621 93.1035 58.8798 93.1035 37.931C93.1035 16.9823 76.1212 0 55.1724 0C34.2237 0 17.2414 16.9823 17.2414 37.931Z" fill="#547580"/>
<path d="M88.3104 56.3793C74.1035 65.2759 52.6897 63.5172 41.3793 52.7586C24.6897 37 39.931 13.7931 67.2414 13.7931C74.6576 13.6873 81.9555 15.6581 88.3104 19.4828C94.6951 30.953 94.6951 44.9091 88.3104 56.3793Z" fill="#98C83E"/>
<path d="M82.7586 41.3793C80.8542 41.3793 79.3103 39.8355 79.3103 37.931C79.3103 27.5862 66.069 27.5862 65.5172 27.5862C63.6128 27.5862 62.069 26.0424 62.069 24.1379C62.069 22.2335 63.6128 20.6897 65.5172 20.6897C72.6896 20.6897 86.2069 24.3103 86.2069 37.931C86.2069 39.8355 84.663 41.3793 82.7586 41.3793Z" fill="#F9EAB0"/>
<path d="M91.6897 48.2759C90.8712 51.1281 89.7135 53.8718 88.2414 56.4483C78.0967 62.3509 65.9524 63.7627 54.7241 60.3448C37.1724 55.0345 29.6897 40 37.4828 27.8621C48.4483 40.6552 66.0345 52.7931 91.6897 48.2759Z" fill="#759834"/>
<path d="M199.724 166.034C198.521 175.325 193.186 183.575 185.207 188.483C179.751 186.646 176.01 181.614 175.822 175.861C175.634 170.107 179.039 164.842 184.363 162.654C189.687 160.465 195.811 161.813 199.724 166.034Z" fill="#7F8C8D"/>
<path d="M182.759 135.793C182.249 141.013 177.64 144.854 172.414 144.414C164.552 144.414 159.517 137.517 163.414 131.517C169.924 130.336 176.642 131.266 182.586 134.172C182.686 134.707 182.744 135.249 182.759 135.793Z" fill="#7F8C8D"/>
</g>
<defs>
<clipPath id="clip0">
<rect width="200" height="200" fill="white"/>
</clipPath>
</defs>
</svg>
