<svg width="200" height="200" viewBox="0 0 200 200" fill="none" xmlns="http://www.w3.org/2000/svg">
<path d="M153.806 70.9677C153.806 66.1032 151.942 61.4516 148.623 57.8839C150.323 53.3129 150.268 48.3032 148.406 43.8097C146.545 39.3161 143.042 35.729 138.61 33.7032C138.432 28.8323 136.465 24.2258 133.026 20.7839C129.584 17.3452 124.977 15.3742 120.103 15.2C118.077 10.7677 114.497 7.26452 110 5.40323C105.506 3.54194 100.5 3.48065 95.9258 5.1871C92.3548 1.86452 87.7032 0 82.8387 0C77.9742 0 73.3226 1.86452 69.7548 5.18387C65.1806 3.48065 60.1742 3.53871 55.6806 5.4C51.1839 7.25806 47.6032 10.7645 45.5774 15.1968C40.7065 15.3742 36.1 17.3419 32.6548 20.7806C29.2161 24.2226 27.2452 28.829 27.071 33.7C22.6387 35.7258 19.1355 39.3097 17.2742 43.8065C15.4129 48.3 15.3548 53.3097 17.0581 57.8806C13.7355 61.4516 11.871 66.1032 11.871 70.9677C11.871 75.8323 13.7355 80.4839 17.0548 84.0516C15.3548 88.6226 15.4097 93.6323 17.271 98.1258C19.1323 102.619 22.6355 106.206 27.0677 108.232C27.2452 113.103 29.2129 117.71 32.6516 121.152C36.2935 124.79 41.2226 126.816 46.3387 126.816C46.7452 126.816 47.1484 126.803 47.5548 126.777H48.1065C47.6548 125.455 47.3548 124.058 47.3548 122.581C47.3548 120.219 48.0065 118.026 49.1161 116.132H47.4968C44.4258 111.335 42.3129 105.868 41.4065 100H40.9032C33.7774 100 28 94.2226 28 87.0968C28 79.971 33.7774 74.1935 40.9032 74.1935V67.7419V67.2871C41.9387 67.5548 43.0097 67.7419 44.129 67.7419C49.7613 67.7419 54.5 64.1097 56.2613 59.0806C58.3226 60.4742 60.8065 61.2903 63.4839 61.2903C68.2 61.2903 72.2806 58.7355 74.5323 54.9581C76.7806 56.8677 79.6581 58.0645 82.8387 58.0645C86.0194 58.0645 88.8968 56.8677 91.1452 54.9581C93.3968 58.7355 97.4774 61.2903 102.194 61.2903C104.871 61.2903 107.355 60.4742 109.416 59.0806C111.177 64.1097 115.916 67.7419 121.548 67.7419C122.668 67.7419 123.739 67.5548 124.774 67.2871V67.7419V74.1935C131.9 74.1935 137.677 79.971 137.677 87.0968C137.677 94.2226 131.9 100 124.774 100H124.271C123.365 105.865 121.255 111.332 118.184 116.129H116.561C117.668 118.023 118.323 120.219 118.323 122.581C118.323 124.058 118.023 125.455 117.565 126.777H118.116C123.642 127.126 129.09 125.081 133.019 121.152C136.458 117.71 138.429 113.103 138.603 108.232C143.035 106.206 146.539 102.623 148.4 98.1258C150.261 93.6323 150.319 88.6226 148.616 84.0516C151.942 80.4839 153.806 75.8323 153.806 70.9677Z" fill="#98C83E"/>
<path d="M186.065 170.968H128V187.097H186.065V170.968Z" fill="#98C83E"/>
<path d="M61.871 83.871C66.3161 83.871 69.9355 80.2548 69.9355 75.8065C69.9355 71.3581 66.3161 67.7419 61.871 67.7419C57.4258 67.7419 53.8065 71.3581 53.8065 75.8065C53.8065 80.2548 57.4258 83.871 61.871 83.871ZM61.871 74.1936C62.7613 74.1936 63.4839 74.9194 63.4839 75.8065C63.4839 76.6936 62.7613 77.4194 61.871 77.4194C60.9806 77.4194 60.2581 76.6936 60.2581 75.8065C60.2581 74.9194 60.9806 74.1936 61.871 74.1936Z" fill="#333333"/>
<path d="M103.806 83.871C108.252 83.871 111.871 80.2548 111.871 75.8065C111.871 71.3581 108.252 67.7419 103.806 67.7419C99.3613 67.7419 95.7419 71.3581 95.7419 75.8065C95.7419 80.2548 99.3613 83.871 103.806 83.871ZM103.806 74.1936C104.697 74.1936 105.419 74.9194 105.419 75.8065C105.419 76.6936 104.697 77.4194 103.806 77.4194C102.916 77.4194 102.194 76.6936 102.194 75.8065C102.194 74.9194 102.916 74.1936 103.806 74.1936Z" fill="#333333"/>
<path d="M73.1613 177.419H47.3548V183.871H73.1613V177.419Z" fill="#333333"/>
<path d="M198.968 102.319L188.487 104.939L188.332 104.852L188.248 105L121.481 121.69C121.406 120.358 121.206 119.055 120.823 117.819L120.9 117.868C123.829 113.297 125.881 108.261 127.003 103C134.835 101.903 140.903 95.2258 140.903 87.0968C140.903 79.3097 135.352 72.7935 128 71.2935V63.1194L123.968 64.1613C123.032 64.4032 122.265 64.5161 121.548 64.5161C117.474 64.5161 113.823 61.9 112.461 58.0129L111.077 54.0581L107.61 56.4065C106.006 57.4903 104.135 58.0645 102.194 58.0645C98.7871 58.0645 95.6903 56.2839 93.9161 53.3064L91.9677 50.0323L89.0613 52.5C87.8 53.5645 85.7 54.8387 82.8387 54.8387C79.9774 54.8387 77.8774 53.5645 76.6194 52.4968L73.7097 50.0323L71.7613 53.3097C69.9871 56.2839 66.8903 58.0645 63.4839 58.0645C61.5419 58.0645 59.671 57.4903 58.0677 56.4065L54.6 54.0581L53.2161 58.0129C51.8548 61.9 48.2032 64.5161 44.129 64.5161C43.4129 64.5161 42.6452 64.4032 41.7097 64.1645L37.6774 63.1194V71.2935C30.3258 72.7935 24.7742 79.3097 24.7742 87.0968C24.7742 95.2258 30.8419 101.903 38.6742 103C39.7968 108.261 41.8484 113.297 44.7774 117.871L44.8484 117.826C44.3839 119.335 44.129 120.935 44.129 122.581C44.129 128.939 47.8613 134.4 53.2226 137.026L43.6032 138.506C28.6968 140.8 16.1645 151.581 11.6677 165.974L1.03226 200H115.097H118.323H198.968V141.935H144.532L198.968 128.326V102.319ZM134.452 87.0968C134.452 91.3323 131.7 94.9 127.906 96.2097C127.958 95.3258 128 94.4387 128 93.5484V78.0129C131.745 79.3484 134.452 82.8968 134.452 87.0968ZM31.2258 87.0968C31.2258 82.8968 33.9323 79.3484 37.6774 78.0129V93.5484C37.6774 94.4387 37.7194 95.3258 37.771 96.2097C33.9774 94.9 31.2258 91.3323 31.2258 87.0968ZM134.013 137.913L142.481 123.094L150.477 121.094L142.01 135.913L134.013 137.913ZM150.319 148.387L142.577 158.065H134.713L142.455 148.387H150.319ZM166.971 158.065L174.713 148.387H182.577L174.835 158.065H166.971ZM158.706 158.065H150.842L158.584 148.387H166.448L158.706 158.065ZM126.448 158.065H121.548V148.387H134.19L126.448 158.065ZM115.097 137.432L112.455 137.026C113.39 136.568 114.271 136.026 115.097 135.403V137.432ZM121.548 141.029V128.326L133.813 125.258L125.345 140.077L121.548 141.029ZM159.148 118.926L167.145 116.926L158.677 131.745L150.681 133.745L159.148 118.926ZM175.816 114.761L183.813 112.761L175.345 127.581L167.345 129.581L175.816 114.761ZM44.129 93.5484V70.9677C49.7032 70.9677 54.8 68.0548 57.7065 63.4516C59.5387 64.1548 61.4903 64.5161 63.4839 64.5161C68.0387 64.5161 72.2516 62.629 75.2645 59.3484C79.9323 61.8742 85.7419 61.8742 90.4097 59.3484C93.4258 62.629 97.6387 64.5161 102.194 64.5161C104.187 64.5161 106.139 64.1548 107.971 63.4516C110.877 68.0548 115.974 70.9677 121.548 70.9677V93.5484C121.548 99.8581 120.013 106.01 117.106 111.535C115.61 109.958 113.803 108.658 111.739 107.781C110.61 99.7806 102.419 93.5484 92.5161 93.5484C89.1065 93.5484 85.7968 94.3032 82.8387 95.7452C79.8806 94.3032 76.571 93.5484 73.1613 93.5484C63.2581 93.5484 55.0677 99.7806 53.9387 107.781C51.8742 108.658 50.0677 109.958 48.571 111.535C45.6645 106.01 44.129 99.8581 44.129 93.5484ZM57.8839 113.239L60.4226 112.594L60.3097 109.974C60.3032 109.813 60.2871 109.655 60.2581 109.494C60.3935 104.242 66.129 100 73.1613 100C76.0484 100 78.8161 100.752 81.1677 102.174L82.8387 103.184L84.5097 102.174C86.8613 100.752 89.629 100 92.5161 100C99.5516 100 105.29 104.245 105.419 109.5L105.258 112.594L107.797 113.239C112.094 114.335 115.097 118.177 115.097 122.581C115.097 127.916 110.755 132.258 105.419 132.258C102.29 132.258 99.4323 130.781 97.5774 128.2L93.9742 123.19L91.9161 129.01C90.5484 132.881 86.9 135.484 82.8387 135.484C78.7774 135.484 75.129 132.881 73.7613 129.01L71.7032 123.19L68.1 128.2C66.2452 130.781 63.3871 132.258 60.2581 132.258C54.9226 132.258 50.5806 127.916 50.5806 122.581C50.5806 118.177 53.5839 114.335 57.8839 113.239ZM41.3323 193.548L44.1032 171.368L37.7032 170.568L34.829 193.548H9.80645L17.8226 167.894C21.5871 155.839 32.0935 146.803 44.5806 144.881L62.2 142.171L82.8387 166.245L96.3484 150.484L91.4484 146.287L82.8387 156.335L66.7097 137.516V137.287C67.8516 136.781 68.9548 136.19 69.9548 135.432C72.9452 139.448 77.6903 141.935 82.8387 141.935C87.9871 141.935 92.7323 139.448 95.7226 135.432C96.7226 136.19 97.8258 136.781 98.9677 137.287V137.516L94.2129 143.065L99.1129 147.261L103.477 142.174L115.097 143.958V149.294V193.548H41.3323ZM121.548 193.548V164.516H192.516V193.548H121.548ZM192.516 158.065H183.1L190.842 148.387H192.516V158.065ZM192.516 123.287L184.016 125.413L192.484 110.594L192.516 110.584V123.287Z" fill="#333333"/>
<path d="M186.065 170.968H179.613V177.419H186.065V170.968Z" fill="#333333"/>
<path d="M173.161 170.968H128V177.419H173.161V170.968Z" fill="#333333"/>
</svg>
