<svg width="40" height="40" viewBox="0 0 40 40" fill="none" xmlns="http://www.w3.org/2000/svg">
<path d="M20 36.6667C10.81 36.6667 3.33333 29.19 3.33333 20C3.33333 10.81 10.81 3.33333 20 3.33333C29.19 3.33333 36.6667 10.81 36.6667 20C36.6667 29.19 29.19 36.6667 20 36.6667ZM20 40C31.045 40 40 31.045 40 20C40 8.955 31.045 9.53674e-07 20 9.53674e-07C8.955 9.53674e-07 9.53674e-07 8.955 9.53674e-07 20C9.53674e-07 31.045 8.955 40 20 40ZM16.6667 20L24.1667 12.5L21.6217 10L11.6667 20L21.6217 30L24.1667 27.5L16.6667 20V20Z" fill="#283B49"/>
</svg>
