<svg width="192" height="192" viewBox="0 0 192 192" fill="none" xmlns="http://www.w3.org/2000/svg">
<g clip-path="url(#clip0)">
<path d="M94 1.70001C90.2 3.00001 83.6 9.1 52.6 39.9C10.5 81.7 10 82.4 10 96C10 109.6 10.5 110.3 52.6 152.1C93.8 193 92.5 192 106.5 192C117.4 192 122.7 188.9 137.8 173.8L150 161.5L139 150.5L128 139.6L152.4 115C179.6 87.6 180 87 180 73.5C180 61.3 178 58.4 149.3 29.8C120.7 1.30001 118.7 5.34071e-06 106 0.100005C101.9 0.100005 96.5 0.900005 94 1.70001ZM127.5 53L148.5 74L126.7 95.8L105 117.5L116 128.5L127 139.5L116.5 150L106 160.5L73.8 128.2L41.5 96L73.5 64C91.1 46.4 105.7 32 106 32C106.3 32 116 41.5 127.5 53Z" fill="#98C83E"/>
</g>
<defs>
<clipPath id="clip0">
<rect width="192" height="192" fill="white"/>
</clipPath>
</defs>
</svg>
