<svg width="24" height="24" viewBox="0 0 24 24" fill="none" xmlns="http://www.w3.org/2000/svg">
<g clip-path="url(#clip0)">
<path d="M11.75 0.212501C11.275 0.375001 10.45 1.1375 6.575 4.9875C1.3125 10.2125 1.25 10.3 1.25 12C1.25 13.7 1.3125 13.7875 6.575 19.0125C11.725 24.125 11.5625 24 13.3125 24C14.675 24 15.3375 23.6125 17.225 21.725L18.75 20.1875L17.375 18.8125L16 17.45L19.05 14.375C22.45 10.95 22.5 10.875 22.5 9.1875C22.5 7.6625 22.25 7.3 18.6625 3.725C15.0875 0.162501 14.8375 9.91276e-08 13.25 0.0125001C12.7375 0.0125001 12.0625 0.1125 11.75 0.212501ZM15.9375 6.625L18.5625 9.25L15.8375 11.975L13.125 14.6875L14.5 16.0625L15.875 17.4375L14.5625 18.75L13.25 20.0625L9.225 16.025L5.1875 12L9.1875 8C11.3875 5.8 13.2125 4 13.25 4C13.2875 4 14.5 5.1875 15.9375 6.625Z" fill="#98C83E"/>
</g>
<defs>
<clipPath id="clip0">
<rect width="24" height="24" fill="white"/>
</clipPath>
</defs>
</svg>
